inDegrees=no
num_controls=7
num_derivatives=13
num_iterations=246
num_multipliers=7
num_parameters=0
num_slacks=7
num_states=26
objective=5.423197
objective_accelerations=0.360439
objective_balance=0.050989
objective_effort=0.352833
objective_height=4.586553
objective_ligament=0.072382
solver_duration=2407.651958
status=Solve_Succeeded
success=true
DataType=double
version=3
OpenSimVersion=4.4-2022-07-23-0e9fedc
endheader
time	/jointset/ground_pelvis/pelvis_tilt/value	/jointset/ground_pelvis/pelvis_tx/value	/jointset/ground_pelvis/pelvis_ty/value	/jointset/hip_l/hip_flexion_l/value	/jointset/hip_l/hip_adduction_l/value	/jointset/hip_l/hip_rotation_l/value	/jointset/back/lumbar_extension/value	/jointset/patellofemoral_l/patellar_flexion_l/value	/jointset/knee_l/knee_flexion_l/value	/jointset/knee_l/knee_adduction_l/value	/jointset/knee_l/knee_rotation_l/value	/jointset/ankle_l/ankle_angle_l/value	/jointset/subtalar_l/subtalar_angle_l/value	/jointset/ground_pelvis/pelvis_tilt/speed	/jointset/ground_pelvis/pelvis_tx/speed	/jointset/ground_pelvis/pelvis_ty/speed	/jointset/hip_l/hip_flexion_l/speed	/jointset/hip_l/hip_adduction_l/speed	/jointset/hip_l/hip_rotation_l/speed	/jointset/back/lumbar_extension/speed	/jointset/patellofemoral_l/patellar_flexion_l/speed	/jointset/knee_l/knee_flexion_l/speed	/jointset/knee_l/knee_adduction_l/speed	/jointset/knee_l/knee_rotation_l/speed	/jointset/ankle_l/ankle_angle_l/speed	/jointset/subtalar_l/subtalar_angle_l/speed	/forceset/tau_hip_flexion_l	/forceset/tau_hip_adduction_l	/forceset/tau_hip_rotation_l	/forceset/tau_knee_flexion_l	/forceset/tau_ankle_angle_l	/forceset/tau_subtalar_angle_l	/forceset/tau_lumbar_extension	lambda_cid13_p0	lambda_cid13_p1	lambda_cid13_p2	lambda_cid13_p3	lambda_cid13_p4	lambda_cid13_p5	lambda_cid14_p0	/jointset/ground_pelvis/pelvis_tilt/accel	/jointset/ground_pelvis/pelvis_tx/accel	/jointset/ground_pelvis/pelvis_ty/accel	/jointset/hip_l/hip_flexion_l/accel	/jointset/hip_l/hip_adduction_l/accel	/jointset/hip_l/hip_rotation_l/accel	/jointset/back/lumbar_extension/accel	/jointset/patellofemoral_l/patellar_flexion_l/accel	/jointset/knee_l/knee_flexion_l/accel	/jointset/knee_l/knee_adduction_l/accel	/jointset/knee_l/knee_rotation_l/accel	/jointset/ankle_l/ankle_angle_l/accel	/jointset/subtalar_l/subtalar_angle_l/accel	gamma_cid13_p0	gamma_cid13_p1	gamma_cid13_p2	gamma_cid13_p3	gamma_cid13_p4	gamma_cid13_p5	gamma_cid14_p0
0.5	0.02232683057318508	0.0204313393442388	0.8519955321750625	0.6393907918581119	-0.3317686525137948	-0.1120727630367059	-0.7600143584300153	0.8225447835634702	0.8225447835634709	-0.1166918944559514	-0.174532885957583	0.2207212293241799	0.03871741781090282	0.1834362008005573	-0.04546021469661765	-0.2581488803066075	0.8239774809866047	-0.05993596412935451	0.4768715033231757	-0.8515617846981373	1.522540461690825	1.522540461690827	0.1177455958069973	-1.716622278627512e-06	0.6226479275330267	0.1663349457855146	-0.1826144299502268	0.03169920199620655	-0.003994963306583795	-0.2451245261295548	0.00691209091808099	0.04361042744025245	0.2721768120782471	-41.28353556614184	-14.79975350803527	5.432637085120345	-0.1646574309798821	-699.0030468545979	-80.19464542819395	-13.63849528762342	0.02825385154028459	0.3296923322736499	-0.1691361804756103	-1.018299855010744	0.1890791141360271	-0.4384138512270957	1.394701187984267	-1.20563877323131	-1.205638773231309	-0.2620341647255941	0.01391742224370692	-0.2876372358610544	0.2438950862096244	-3.653730028159639e-08	-5.232133695126401e-07	8.683620878927798e-08	-7.143055398557635e-08	-4.368846763254872e-08	-3.016872858492911e-07	-5.189416104265916e-08
0.51	0.02416221231556408	0.01999322081232928	0.8494061661625417	0.6475784602596109	-0.3323587958787887	-0.1073271101337341	-0.7684590440665697	0.8377075707473525	0.8377075707473537	-0.1155276629323491	-0.1745328871227468	0.2269322849326769	0.04039236253613557	0.1836163940726913	-0.04216311640698982	-0.259662622713625	0.8134237404173059	-0.05809878728877898	0.4722011860364515	-0.8372716422031719	1.509786885498565	1.509786885498571	0.1150893393262479	6.996806871445735e-07	0.619471927542825	0.1686192228257336	-0.186066523016032	0.03271101984665559	-0.004133085281463913	-0.2484176907868441	0.003620934990291778	0.04380936485417051	0.2765548280100288	-42.48894294428761	-14.66070240885788	5.394029787757776	0.270672744095579	-702.0358651337092	-80.13792005286022	-13.06392314003315	0.00933835759702133	0.3297602824982181	-0.1332454626748887	-1.093779666598383	0.1801619690336032	-0.4900711807225214	1.46172584164854	-1.344721131045275	-1.34472113104474	-0.2691989279596984	-0.006712828637157847	-0.3462886552417335	0.2155511792580357	-3.291964548793194e-08	-4.665839827572981e-07	8.737422610538919e-08	-6.534762271764726e-08	-3.791491958943786e-08	-2.738477563387258e-07	-4.723058423127686e-08
0.52	0.02599868324917452	0.01958808160435421	0.8468035122875787	0.6556566175536758	-0.3329307424753741	-0.1026299065062924	-0.7767577172658952	0.8527359213515507	0.8527359213515471	-0.1143903494812073	-0.1745328874374696	0.2331088390863441	0.04208912146503653	0.1836540390467034	-0.0388643499097277	-0.2608064527950416	0.802075259499647	-0.05629661044759553	0.4671816482166318	-0.822359297252373	1.49565314575343	1.495653145753439	0.1123619813170967	-1.546534754876154e-06	0.6157476365669432	0.1706977865191532	-0.1895186160818338	0.03372283769711527	-0.004271207256436084	-0.251710855444127	0.0003297790625070035	0.04400830226810508	0.2809328439418102	-43.69727925764904	-14.52101157215599	5.355175888742865	0.6848997390374335	-705.1303910259384	-80.09842618425914	-12.48654568932432	-0.0002558080841024325	0.3300259738005207	-0.09515371535541249	-1.177247924682797	0.1820791142575929	-0.5082579578462137	1.519141679150934	-1.481671483806235	-1.481671483806215	-0.2762544704059815	0.01298491856213016	-0.397295432997046	0.2027524168497556	-3.8141559584107e-08	-3.879760659893189e-07	1.522420100001956e-07	-5.002218071726513e-08	-4.264807525256556e-08	-2.589420464772588e-07	-4.820892062343798e-08
0.53	0.02783479927164296	0.0192159136218104	0.8441912900819076	0.6636174164094802	-0.3334848456144033	-0.09798439919650369	-0.7849042685318541	0.8676161361899519	0.8676161361899435	-0.1132807545390536	-0.1745327660460883	0.2392454556452121	0.04380562393386963	0.1835441558893126	-0.03557128366516012	-0.2615737970245683	0.7899590545036896	-0.05452899548124727	0.4618468966666425	-0.8068591571412913	1.480168139044691	1.480168139044691	0.1095630672716915	1.544874649307688e-05	0.6114881451323219	0.1725689480163065	-0.1927408574181654	0.03453478569808115	-0.004429851371193388	-0.2551883625979664	-0.002799120243122054	0.04423821566903692	0.2851202556986316	-44.85241301731475	-14.40551307679587	5.32180510157148	1.097176371438105	-708.2005853794356	-80.1462014288312	-11.90746958244585	-0.02010892870979404	0.3286329954054281	-0.05790510639615505	-1.247628092833948	0.173355655874924	-0.5570705307725623	1.57921999676837	-1.615157952056598	-1.615157952058025	-0.2808449855347031	-0.005472067681321188	-0.4534168986089746	0.1742671668961744	-5.176930373182832e-08	-2.598182285129838e-07	2.953568763540251e-07	-2.060440462707332e-08	-5.825791029434418e-08	-2.414088373376247e-07	-5.448875407765731e-08
0.54	0.0296690655907105	0.01887661351083639	0.8415733183680123	0.6714532889541686	-0.3340214220101587	-0.09339443675765556	-0.7928930644327659	0.8823348524237292	0.8823348524237274	-0.1121989757601202	-0.1745327804820151	0.2453368491097509	0.0455398318478239	0.1832840983661911	-0.03229077559576836	-0.2619563544398819	0.7770899972764626	-0.05279126179283831	0.4560726740287598	-0.7908082242429474	1.463353424829998	1.463353424829988	0.1067987486692077	-2.871199575578851e-05	0.6067030177011293	0.1742388755433817	-0.1959630987545054	0.0353467336990424	-0.004588495485812654	-0.2586658697518134	-0.005928019548752839	0.0444681290699603	0.2893076674554473	-46.01116548677542	-14.28963095486844	5.28865927347158	1.489602424543564	-711.3413755445605	-80.21506610294321	-11.32789624567165	-0.03029068123027803	0.3275143387653655	-0.01819635251275118	-1.32781837093675	0.1761028586697387	-0.596152175424906	1.629300236603344	-1.747612984997114	-1.747612984997087	-0.2693353818217238	0.0007537138627512145	-0.5024226323112797	0.1625056228340929	-7.469711517062223e-08	-7.683920216782863e-08	5.250429828752853e-07	2.440489003056766e-08	-8.590151826569417e-08	-2.209686077200186e-07	-6.663407364309006e-08
